<?xml version="1.0" encoding="UTF-8"?>
<svg width="2670px" height="509px" viewBox="0 0 2670 509" version="1.1" xmlns="http://www.w3.org/2000/svg" xmlns:xlink="http://www.w3.org/1999/xlink">
    <title>编组</title>
    <g id="页面-1" stroke="none" stroke-width="1" fill="none" fill-rule="evenodd">
        <g id="编组" transform="translate(0, -7)" fill="#ffffff" fill-rule="nonzero">
            <g id="路径">
                <polygon points="121.97 176.94 121.97 183.09 128.12 183.09 128.12 35.5 96.35 35.5 96.35 41.65 121.97 41.65"></polygon>
                <polygon points="109.67 164.64 109.67 183.09 115.82 183.09 115.82 47.8 96.35 47.8 96.35 53.95 109.67 53.95"></polygon>
                <polygon points="334.13 42.67 359.76 42.67 359.76 496.73 359.76 509.03 258.8 509.03 258.8 445.48 258.8 439.33 252.65 439.33 252.65 515.18 359.76 515.18 360.78 515.18 365.91 515.18 365.91 36.52 334.13 36.52"></polygon>
                <polygon points="350.53 501.85 353.61 501.85 353.61 47.8 334.13 47.8 334.13 53.95 347.46 53.95 347.46 483.4 347.46 495.7 271.1 495.7 271.1 456.75 271.1 438.3 264.95 438.3 264.95 501.85 347.46 501.85"></polygon>
                <polygon points="115.82 312.24 112.23 312.24 109.67 312.24 109.67 483.4 109.67 495.7 33.31 495.7 33.31 456.75 33.31 438.3 27.16 438.3 27.16 501.85 109.67 501.85 112.74 501.85 115.82 501.85 115.82 318.38 252.14 318.38 252.14 312.24 118.38 312.24"></polygon>
                <polygon points="128.12 325.56 123.51 325.56 121.97 325.56 121.97 496.73 121.97 509.03 21.01 509.03 21.01 445.48 21.01 439.33 14.86 439.33 14.86 515.18 121.97 515.18 122.99 515.18 128.12 515.18 128.12 331.71 252.14 331.71 252.14 325.56 129.66 325.56"></polygon>
                <polygon points="873.26 501.85 876.33 501.85 876.33 318.38 1066.98 318.38 1066.98 316.33 1066.98 312.24 1066.98 226.14 1107.97 226.14 1114.12 226.14 1114.12 219.99 1114.12 147.22 1114.12 141.07 1107.97 141.07 1060.83 141.07 1060.83 147.22 1107.97 147.22 1107.97 219.99 1066.98 219.99 1060.83 219.99 1060.83 226.14 1060.83 312.24 878.9 312.24 876.33 312.24 872.75 312.24 870.18 312.24 870.18 483.4 870.18 495.7 793.83 495.7 793.83 456.75 793.83 438.3 787.68 438.3 787.68 501.85 870.18 501.85"></polygon>
                <polygon points="1073.12 127.74 1073.12 133.89 1120.27 133.89 1120.27 233.31 1079.27 233.31 1073.12 233.31 1073.12 239.46 1073.12 325.56 890.17 325.56 888.63 325.56 884.02 325.56 882.48 325.56 882.48 496.73 882.48 509.03 781.53 509.03 781.53 445.48 781.53 439.33 775.38 439.33 775.38 515.18 882.48 515.18 883.51 515.18 888.63 515.18 888.63 331.71 1079.27 331.71 1079.27 330.68 1079.27 325.56 1079.27 239.46 1120.27 239.46 1126.42 239.46 1126.42 233.31 1126.42 133.89 1126.42 127.74 1120.27 127.74"></polygon>
                <polygon points="714.39 133.89 740.02 133.89 740.02 496.73 740.02 509.03 639.06 509.03 639.06 445.48 639.06 439.33 632.91 439.33 632.91 515.18 740.02 515.18 741.04 515.18 746.17 515.18 746.17 127.74 714.39 127.74"></polygon>
                <polygon points="727.72 483.4 727.72 495.7 651.36 495.7 651.36 456.75 651.36 438.3 645.21 438.3 645.21 501.85 727.72 501.85 730.79 501.85 733.87 501.85 733.87 139.02 714.39 139.02 714.39 145.17 727.72 145.17"></polygon>
                <polygon points="496.08 312.24 492.49 312.24 489.93 312.24 489.93 483.4 489.93 495.7 413.57 495.7 413.57 456.75 413.57 438.3 407.42 438.3 407.42 501.85 489.93 501.85 493 501.85 496.08 501.85 496.08 318.38 632.4 318.38 632.4 312.24 498.64 312.24"></polygon>
                <polygon points="508.38 325.56 503.76 325.56 502.23 325.56 502.23 496.73 502.23 509.03 401.27 509.03 401.27 445.48 401.27 439.33 395.12 439.33 395.12 515.18 502.23 515.18 503.25 515.18 508.38 515.18 508.38 331.71 632.4 331.71 632.4 325.56 509.91 325.56"></polygon>
                <polygon points="496.08 133.89 631.37 133.89 637.52 133.89 637.52 127.74 489.93 127.74 489.93 183.09 496.08 183.09"></polygon>
                <polygon points="502.23 183.09 508.38 183.09 508.38 146.19 619.07 146.19 637.52 146.19 637.52 140.04 502.23 140.04"></polygon>
                <polygon points="692.87 90.85 699.02 90.85 699.02 35.5 643.67 35.5 643.67 41.65 692.87 41.65"></polygon>
                <polygon points="680.57 90.85 686.72 90.85 686.72 47.8 643.67 47.8 643.67 53.95 680.57 53.95"></polygon>
                <polygon points="876.33 133.89 1011.63 133.89 1017.78 133.89 1017.78 127.74 870.18 127.74 870.18 183.09 876.33 183.09"></polygon>
                <polygon points="882.48 183.09 888.63 183.09 888.63 146.19 999.33 146.19 1017.78 146.19 1017.78 140.04 882.48 140.04"></polygon>
                <polygon points="1073.12 90.85 1079.27 90.85 1079.27 35.5 1023.93 35.5 1023.93 41.65 1073.12 41.65"></polygon>
                <polygon points="1060.83 90.85 1066.98 90.85 1066.98 47.8 1023.93 47.8 1023.93 53.95 1060.83 53.95"></polygon>
                <polygon points="1253.52 501.85 1256.59 501.85 1256.59 318.38 1447.23 318.38 1447.23 316.33 1447.23 312.24 1447.23 226.14 1488.23 226.14 1494.38 226.14 1494.38 219.99 1494.38 147.22 1494.38 141.07 1488.23 141.07 1441.08 141.07 1441.08 147.22 1488.23 147.22 1488.23 219.99 1447.23 219.99 1441.08 219.99 1441.08 226.14 1441.08 312.24 1259.15 312.24 1256.59 312.24 1253 312.24 1250.44 312.24 1250.44 483.4 1250.44 495.7 1174.08 495.7 1174.08 456.75 1174.08 438.3 1167.93 438.3 1167.93 501.85 1250.44 501.85"></polygon>
                <polygon points="1453.38 127.74 1453.38 133.89 1500.53 133.89 1500.53 233.31 1459.53 233.31 1453.38 233.31 1453.38 239.46 1453.38 325.56 1270.43 325.56 1268.89 325.56 1264.28 325.56 1262.74 325.56 1262.74 496.73 1262.74 509.03 1161.78 509.03 1161.78 445.48 1161.78 439.33 1155.63 439.33 1155.63 515.18 1262.74 515.18 1263.77 515.18 1268.89 515.18 1268.89 331.71 1459.53 331.71 1459.53 330.68 1459.53 325.56 1459.53 239.46 1500.53 239.46 1506.68 239.46 1506.68 233.31 1506.68 133.89 1506.68 127.74 1500.53 127.74"></polygon>
                <polygon points="1697.83 456.75 1697.83 438.3 1691.68 438.3 1691.68 501.85 1774.19 501.85 1777.27 501.85 1780.34 501.85 1780.34 318.38 1827.49 318.38 1827.49 316.33 1827.49 312.24 1827.49 226.14 1868.49 226.14 1874.64 226.14 1874.64 219.99 1874.64 133.89 1915.64 133.89 1921.79 133.89 1921.79 127.74 1921.79 54.97 1921.79 48.82 1915.64 48.82 1890.01 48.82 1890.01 54.97 1915.64 54.97 1915.64 127.74 1874.64 127.74 1868.49 127.74 1868.49 133.89 1868.49 219.99 1827.49 219.99 1821.34 219.99 1821.34 226.14 1821.34 312.24 1782.9 312.24 1780.34 312.24 1776.75 312.24 1774.19 312.24 1774.19 483.4 1774.19 495.7 1697.83 495.7"></polygon>
                <polygon points="1927.93 35.5 1890.01 35.5 1890.01 41.65 1927.93 41.65 1927.93 141.07 1886.94 141.07 1880.79 141.07 1880.79 147.22 1880.79 233.31 1839.79 233.31 1833.64 233.31 1833.64 239.46 1833.64 325.56 1794.18 325.56 1792.64 325.56 1788.03 325.56 1786.49 325.56 1786.49 496.73 1786.49 509.03 1685.53 509.03 1685.53 445.48 1685.53 439.33 1679.38 439.33 1679.38 515.18 1786.49 515.18 1787.52 515.18 1792.64 515.18 1792.64 331.71 1839.79 331.71 1839.79 330.68 1839.79 325.56 1839.79 239.46 1880.79 239.46 1886.94 239.46 1886.94 233.31 1886.94 147.22 1927.93 147.22 1934.08 147.22 1934.08 141.07 1934.08 41.65 1934.08 35.5"></polygon>
                <polygon points="1256.59 133.89 1391.88 133.89 1398.03 133.89 1398.03 127.74 1250.44 127.74 1250.44 183.09 1256.59 183.09"></polygon>
                <polygon points="1262.74 183.09 1268.89 183.09 1268.89 146.19 1379.59 146.19 1398.03 146.19 1398.03 140.04 1262.74 140.04"></polygon>
                <polygon points="1453.38 90.85 1459.53 90.85 1459.53 35.5 1404.18 35.5 1404.18 41.65 1453.38 41.65"></polygon>
                <polygon points="1441.08 90.85 1447.23 90.85 1447.23 47.8 1404.18 47.8 1404.18 53.95 1441.08 53.95"></polygon>
                <polygon points="1644.02 90.85 1650.17 90.85 1650.17 35.5 1594.83 35.5 1594.83 41.65 1644.02 41.65"></polygon>
                <polygon points="1631.72 90.85 1637.87 90.85 1637.87 47.8 1594.83 47.8 1594.83 53.95 1631.72 53.95"></polygon>
                <polygon points="1643 133.89 1692.2 133.89 1692.2 183.09 1698.35 183.09 1698.35 127.74 1643 127.74"></polygon>
                <polygon points="1686.05 183.09 1686.05 140.04 1643 140.04 1643 146.19 1679.9 146.19 1679.9 183.09"></polygon>
                <polygon points="1542.55 84.7 1536.4 84.7 1536.4 147.22 1573.3 147.22 1573.3 141.07 1542.55 141.07"></polygon>
                <polygon points="1554.85 84.7 1548.7 84.7 1548.7 134.92 1573.3 134.92 1573.3 128.77 1554.85 128.77"></polygon>
                <polygon points="1589.7 176.94 1583.55 176.94 1583.55 239.46 1620.45 239.46 1620.45 233.31 1589.7 233.31"></polygon>
                <polygon points="1602 176.94 1595.85 176.94 1595.85 227.16 1620.45 227.16 1620.45 221.01 1602 221.01"></polygon>
                <polygon points="1636.85 269.19 1630.7 269.19 1630.7 331.71 1667.6 331.71 1667.6 325.56 1636.85 325.56"></polygon>
                <polygon points="1649.15 269.19 1643 269.19 1643 319.41 1667.6 319.41 1667.6 313.26 1649.15 313.26"></polygon>
            </g>
            <g id="矩形">
                <rect x="0" y="7.82" width="96.35" height="78.92"></rect>
                <rect x="0" y="100.07" width="96.35" height="78.92"></rect>
                <rect x="0" y="284.56" width="96.35" height="78.92"></rect>
                <rect x="0" y="376.81" width="96.35" height="78.92"></rect>
                <rect x="237.79" y="7.82" width="96.35" height="78.92"></rect>
                <rect x="237.79" y="100.07" width="96.35" height="78.92"></rect>
                <rect x="237.79" y="284.56" width="96.35" height="78.92"></rect>
                <rect x="237.79" y="376.81" width="96.35" height="78.92"></rect>
                <rect x="0" y="192.32" width="334.13" height="78.92"></rect>
                <rect x="428.43" y="7.82" width="237.79" height="78.92"></rect>
                <rect x="380.26" y="100.07" width="96.35" height="78.92"></rect>
                <rect x="380.26" y="284.56" width="96.35" height="78.92"></rect>
                <rect x="380.26" y="376.81" width="96.35" height="78.92"></rect>
                <rect x="618.05" y="100.07" width="96.35" height="78.92"></rect>
                <rect x="618.05" y="284.56" width="96.35" height="78.92"></rect>
                <rect x="618.05" y="376.81" width="96.35" height="78.92"></rect>
                <rect x="380.26" y="192.32" width="334.13" height="78.92"></rect>
                <rect x="760.51" y="7.82" width="284.94" height="78.92"></rect>
                <rect x="760.51" y="100.07" width="96.35" height="78.92"></rect>
                <rect x="760.51" y="284.56" width="96.35" height="78.92"></rect>
                <rect x="760.51" y="376.81" width="96.35" height="78.92"></rect>
                <rect x="998.3" y="100.07" width="96.35" height="78.92"></rect>
                <rect x="760.51" y="192.32" width="284.94" height="78.92"></rect>
                <rect x="1140.77" y="7.82" width="284.94" height="78.92"></rect>
                <rect x="1140.77" y="100.07" width="96.35" height="78.92"></rect>
                <rect x="1140.77" y="284.56" width="96.35" height="78.92"></rect>
                <rect x="1140.77" y="376.81" width="96.35" height="78.92"></rect>
                <rect x="1663.5" y="284.56" width="96.35" height="78.92"></rect>
                <rect x="1615.32" y="192.32" width="191.67" height="78.92"></rect>
                <rect x="1663.5" y="376.81" width="96.35" height="78.92"></rect>
                <rect x="1378.56" y="100.07" width="96.35" height="78.92"></rect>
                <rect x="1568.18" y="100.07" width="96.35" height="78.92"></rect>
                <rect x="1520" y="7.82" width="96.35" height="78.92"></rect>
                <rect x="1805.97" y="7.82" width="96.35" height="78.92"></rect>
                <rect x="1758.82" y="100.07" width="96.35" height="78.92"></rect>
                <rect x="1140.77" y="192.32" width="284.94" height="78.92"></rect>
            </g>
            <path d="M1956.63,192.83 L1956.63,456.24 L2638.22,456.24 L2638.22,192.83 L1956.63,192.83 Z M2402.64,270.56 L2442.12,270.56 L2442.12,302.9 L2402.64,302.9 L2402.64,270.56 L2402.64,270.56 Z M2422.38,308.36 L2422.38,340.7 L2343.84,340.7 L2343.84,308.36 L2422.38,308.36 Z M2364,302.9 L2324.52,302.9 L2324.52,270.56 L2364,270.56 L2364,302.9 Z M2304.78,232.76 L2344.26,232.76 L2344.26,265.1 L2304.78,265.1 L2304.78,232.76 L2304.78,232.76 Z M2149.8,270.56 L2189.28,270.56 L2189.28,302.9 L2149.8,302.9 L2149.8,270.56 L2149.8,270.56 Z M2149.8,308.36 L2265.72,308.36 L2265.72,340.7 L2149.8,340.7 L2149.8,308.36 Z M2149.8,346.16 L2189.28,346.16 L2189.28,378.5 L2149.8,378.5 L2149.8,346.16 L2149.8,346.16 Z M1979.69,232.76 L2019.17,232.76 L2019.17,265.1 L1979.69,265.1 L1979.69,232.76 L1979.69,232.76 Z M1979.69,270.56 L2051.09,270.56 L2051.09,302.9 L1979.69,302.9 L1979.69,270.56 L1979.69,270.56 Z M2019.18,416.31 L1979.7,416.31 L1979.7,383.97 L2019.18,383.97 L2019.18,416.31 L2019.18,416.31 Z M2019.18,378.51 L1979.7,378.51 L1979.7,346.17 L2019.18,346.17 L2019.18,378.51 Z M2019.18,340.7 L1979.7,340.7 L1979.7,308.36 L2019.18,308.36 L2019.18,340.7 L2019.18,340.7 Z M2035.98,308.36 L2075.46,308.36 L2075.46,340.7 L2035.98,340.7 L2035.98,308.36 Z M2131.74,416.31 L2092.26,416.31 L2092.26,383.97 L2131.74,383.97 L2131.74,416.31 L2131.74,416.31 Z M2131.74,378.51 L2060.34,378.51 L2060.34,346.17 L2131.74,346.17 L2131.74,378.51 Z M2131.74,340.7 L2092.26,340.7 L2092.26,308.36 L2131.74,308.36 L2131.74,340.7 L2131.74,340.7 Z M2131.74,302.9 L2092.26,302.9 L2092.26,270.56 L2131.74,270.56 L2131.74,302.9 Z M2131.74,265.1 L2092.26,265.1 L2092.26,232.76 L2131.74,232.76 L2131.74,265.1 Z M2286.72,416.31 L2149.8,416.31 L2149.8,383.97 L2286.72,383.97 L2286.72,416.31 L2286.72,416.31 Z M2286.72,265.1 L2149.8,265.1 L2149.8,232.76 L2286.72,232.76 L2286.72,265.1 Z M2344.26,416.31 L2304.78,416.31 L2304.78,383.97 L2344.26,383.97 L2344.26,416.31 L2344.26,416.31 Z M2364,378.51 L2324.52,378.51 L2324.52,346.17 L2364,346.17 L2364,378.51 Z M2402.64,346.16 L2442.12,346.16 L2442.12,378.5 L2402.64,378.5 L2402.64,346.16 L2402.64,346.16 Z M2461.44,416.31 L2421.96,416.31 L2421.96,383.97 L2461.44,383.97 L2461.44,416.31 L2461.44,416.31 Z M2461.44,265.1 L2421.96,265.1 L2421.96,232.76 L2461.44,232.76 L2461.44,265.1 Z M2566.44,416.31 L2526.96,416.31 L2526.96,383.97 L2566.44,383.97 L2566.44,416.31 L2566.44,416.31 Z M2566.44,378.51 L2526.96,378.51 L2526.96,346.17 L2566.44,346.17 L2566.44,378.51 Z M2566.44,340.7 L2526.96,340.7 L2526.96,308.36 L2566.44,308.36 L2566.44,340.7 L2566.44,340.7 Z M2566.44,302.9 L2526.96,302.9 L2526.96,270.56 L2566.44,270.56 L2566.44,302.9 Z M2615.17,265.1 L2478.25,265.1 L2478.25,232.76 L2615.17,232.76 L2615.17,265.1 Z" id="形状"></path>
            <g>
                <polygon id="路径" points="2651.55 233.83 2651.55 483.4 2651.55 495.7 1998.14 495.7 1998.14 456.75 1998.14 438.3 1991.99 438.3 1991.99 501.85 2651.55 501.85 2654.63 501.85 2657.7 501.85 2657.7 233.83"></polygon>
                <polygon id="路径" points="2663.85 220.5 2663.85 496.73 2663.85 509.03 1985.84 509.03 1985.84 445.48 1985.84 439.33 1979.69 439.33 1979.69 515.18 2663.85 515.18 2664.88 515.18 2670 515.18 2670 220.5"></polygon>
                <rect id="矩形" x="2636.18" y="220.5" width="31.77" height="6.15"></rect>
                <rect id="矩形" x="2636.18" y="232.8" width="21.52" height="6.15"></rect>
            </g>
        </g>
    </g>
</svg>