<?xml version="1.0" encoding="UTF-8"?>
<svg id="_图层_1" data-name="图层 1" xmlns="http://www.w3.org/2000/svg" viewBox="0 0 1024 1024">
  <defs>
    <style>
      .cls-1 {
        mix-blend-mode: difference;
      }

      .cls-2 {
        fill: lime;
      }

      .cls-3 {
        fill: blue;
      }

      .cls-4 {
        isolation: isolate;
      }

      .cls-5 {
        fill: #fff;
      }

      .cls-6 {
        mix-blend-mode: screen;
      }

      .cls-7 {
        fill: red;
      }

      .cls-8 {
        fill: #18171c;
      }
    </style>
  </defs>
  <rect class="cls-8" x="0" y="0" width="1024" height="1024" rx="120" ry="120"/>
  <g>
    <g class="cls-4">
      <g>
        <polygon class="cls-5" points="425.45 392 425.45 400.73 434.18 400.73 434.18 191.27 389.09 191.27 389.09 200 425.45 200 425.45 392"/>
        <polygon class="cls-5" points="408 374.55 408 400.73 416.73 400.73 416.73 208.73 389.09 208.73 389.09 217.45 408 217.45 408 374.55"/>
        <polygon class="cls-5" points="726.55 192.73 726.55 201.45 762.91 201.45 762.91 845.82 762.91 863.27 619.64 863.27 619.64 773.09 619.64 764.36 610.91 764.36 610.91 872 762.91 872 764.36 872 771.64 872 771.64 192.73 726.55 192.73"/>
        <polygon class="cls-5" points="749.82 853.09 754.18 853.09 754.18 208.73 726.55 208.73 726.55 217.45 745.45 217.45 745.45 826.91 745.45 844.36 637.09 844.36 637.09 789.09 637.09 762.91 628.36 762.91 628.36 853.09 745.45 853.09 749.82 853.09"/>
        <polygon class="cls-5" points="416.73 584 411.64 584 408 584 408 826.91 408 844.36 299.64 844.36 299.64 789.09 299.64 762.91 290.91 762.91 290.91 853.09 408 853.09 412.36 853.09 416.73 853.09 416.73 592.73 610.18 592.73 610.18 584 420.36 584 416.73 584"/>
        <polygon class="cls-5" points="434.18 602.91 427.64 602.91 425.45 602.91 425.45 845.82 425.45 863.27 282.18 863.27 282.18 773.09 282.18 764.36 273.45 764.36 273.45 872 425.45 872 426.91 872 434.18 872 434.18 611.64 610.18 611.64 610.18 602.91 436.36 602.91 434.18 602.91"/>
      </g>
      <g>
        <polygon class="cls-3" points="425.45 392 425.45 400.73 434.18 400.73 434.18 191.27 389.09 191.27 389.09 200 425.45 200 425.45 392"/>
        <polygon class="cls-3" points="408 374.55 408 400.73 416.73 400.73 416.73 208.73 389.09 208.73 389.09 217.45 408 217.45 408 374.55"/>
        <polygon class="cls-3" points="726.55 192.73 726.55 201.45 762.91 201.45 762.91 845.82 762.91 863.27 619.64 863.27 619.64 773.09 619.64 764.36 610.91 764.36 610.91 872 762.91 872 764.36 872 771.64 872 771.64 192.73 726.55 192.73"/>
        <polygon class="cls-3" points="749.82 853.09 754.18 853.09 754.18 208.73 726.55 208.73 726.55 217.45 745.45 217.45 745.45 826.91 745.45 844.36 637.09 844.36 637.09 789.09 637.09 762.91 628.36 762.91 628.36 853.09 745.45 853.09 749.82 853.09"/>
        <polygon class="cls-3" points="416.73 584 411.64 584 408 584 408 826.91 408 844.36 299.64 844.36 299.64 789.09 299.64 762.91 290.91 762.91 290.91 853.09 408 853.09 412.36 853.09 416.73 853.09 416.73 592.73 610.18 592.73 610.18 584 420.36 584 416.73 584"/>
        <polygon class="cls-3" points="434.18 602.91 427.64 602.91 425.45 602.91 425.45 845.82 425.45 863.27 282.18 863.27 282.18 773.09 282.18 764.36 273.45 764.36 273.45 872 425.45 872 426.91 872 434.18 872 434.18 611.64 610.18 611.64 610.18 602.91 436.36 602.91 434.18 602.91"/>
      </g>
      <g class="cls-6">
        <polygon class="cls-2" points="426.43 390.99 426.43 399.63 435.07 399.63 435.07 192.27 390.43 192.27 390.43 200.91 426.43 200.91 426.43 390.99"/>
        <polygon class="cls-2" points="409.15 373.71 409.15 399.63 417.79 399.63 417.79 209.55 390.43 209.55 390.43 218.19 409.15 218.19 409.15 373.71"/>
        <polygon class="cls-2" points="724.51 193.71 724.51 202.35 760.51 202.35 760.51 840.27 760.51 857.55 618.67 857.55 618.67 768.27 618.67 759.63 610.03 759.63 610.03 866.19 760.51 866.19 761.95 866.19 769.15 866.19 769.15 193.71 724.51 193.71"/>
        <polygon class="cls-2" points="747.55 847.47 751.87 847.47 751.87 209.55 724.51 209.55 724.51 218.19 743.23 218.19 743.23 821.55 743.23 838.83 635.95 838.83 635.95 784.11 635.95 758.19 627.31 758.19 627.31 847.47 743.23 847.47 747.55 847.47"/>
        <polygon class="cls-2" points="417.79 581.07 412.75 581.07 409.15 581.07 409.15 821.55 409.15 838.83 301.87 838.83 301.87 784.11 301.87 758.19 293.23 758.19 293.23 847.47 409.15 847.47 413.47 847.47 417.79 847.47 417.79 589.71 609.31 589.71 609.31 581.07 421.39 581.07 417.79 581.07"/>
        <polygon class="cls-2" points="435.07 599.79 428.59 599.79 426.43 599.79 426.43 840.27 426.43 857.55 284.59 857.55 284.59 768.27 284.59 759.63 275.95 759.63 275.95 866.19 426.43 866.19 427.87 866.19 435.07 866.19 435.07 608.43 609.31 608.43 609.31 599.79 437.23 599.79 435.07 599.79"/>
      </g>
      <g class="cls-1">
        <polygon class="cls-7" points="423.51 395.01 423.51 403.82 432.41 403.82 432.41 192.27 386.42 192.27 386.42 201.09 423.51 201.09 423.51 395.01"/>
        <polygon class="cls-7" points="405.71 377.38 405.71 403.82 414.61 403.82 414.61 209.9 386.42 209.9 386.42 218.72 405.71 218.72 405.71 377.38"/>
        <polygon class="cls-7" points="730.63 193.74 730.63 202.56 767.72 202.56 767.72 853.36 767.72 870.99 621.58 870.99 621.58 779.91 621.58 771.09 612.68 771.09 612.68 879.81 767.72 879.81 769.2 879.81 776.62 879.81 776.62 193.74 730.63 193.74"/>
        <polygon class="cls-7" points="754.36 860.71 758.81 860.71 758.81 209.9 730.63 209.9 730.63 218.72 749.91 218.72 749.91 834.27 749.91 851.89 639.38 851.89 639.38 796.07 639.38 769.63 630.48 769.63 630.48 860.71 749.91 860.71 754.36 860.71"/>
        <polygon class="cls-7" points="414.61 588.93 409.42 588.93 405.71 588.93 405.71 834.27 405.71 851.89 295.18 851.89 295.18 796.07 295.18 769.63 286.28 769.63 286.28 860.71 405.71 860.71 410.16 860.71 414.61 860.71 414.61 597.74 611.93 597.74 611.93 588.93 418.32 588.93 414.61 588.93"/>
        <polygon class="cls-7" points="432.41 608.03 425.74 608.03 423.51 608.03 423.51 853.36 423.51 870.99 277.37 870.99 277.37 779.91 277.37 771.09 268.47 771.09 268.47 879.81 423.51 879.81 425 879.81 432.41 879.81 432.41 616.84 611.93 616.84 611.93 608.03 434.64 608.03 432.41 608.03"/>
      </g>
    </g>
    <g>
      <rect class="cls-5" x="252.36" y="152" width="136.73" height="112"/>
      <rect class="cls-5" x="252.36" y="282.91" width="136.73" height="112"/>
      <rect class="cls-5" x="252.36" y="544.73" width="136.73" height="112"/>
      <rect class="cls-5" x="252.36" y="675.64" width="136.73" height="112"/>
      <rect class="cls-5" x="589.82" y="152" width="136.73" height="112"/>
      <rect class="cls-5" x="589.82" y="282.91" width="136.73" height="112"/>
      <rect class="cls-5" x="589.82" y="544.73" width="136.73" height="112"/>
      <rect class="cls-5" x="589.82" y="675.64" width="136.73" height="112"/>
      <rect class="cls-5" x="252.36" y="413.82" width="474.18" height="112"/>
    </g>
  </g>
</svg>